<svg height="512pt" viewBox="-41 0 512 512" width="512pt" xmlns="http://www.w3.org/2000/svg"><path d="m315.125 0h-249.035156c-11.378906 0-20.605469 9.226562-20.605469 20.605469v470.785156c0 11.378906 9.226563 20.605469 20.605469 20.605469h343.84375c11.382812 0 20.609375-9.226563 20.609375-20.605469v-384.613281zm0 0" fill="#e7e7e7"/><path d="m430.546875 106.78125v384.613281c0 11.375-9.230469 20.605469-20.605469 20.605469h-26.863281c11.386719 0 20.605469-9.230469 20.605469-20.605469v-409.46875zm0 0" fill="#cecece"/><path d="m315.125 0v86.460938c0 11.378906 9.226562 20.605468 20.605469 20.605468h94.8125zm0 0" fill="#acacac"/><path d="m258.796875 257.304688h-239.300781c-10.765625 0-19.496094-8.730469-19.496094-19.496094v-92.300782c0-10.769531 8.730469-19.5 19.496094-19.5h239.300781c10.769531 0 19.496094 8.730469 19.496094 19.5v92.300782c0 10.765625-8.726563 19.496094-19.496094 19.496094zm0 0" fill="#ff5770"/><path d="m278.289062 145.511719v92.296875c0 10.769531-8.726562 19.496094-19.492187 19.496094h-20.785156c10.765625 0 19.492187-8.726563 19.492187-19.496094v-92.296875c0-10.769531-8.726562-19.503907-19.492187-19.503907h20.785156c10.765625 0 19.492187 8.734376 19.492187 19.503907zm0 0" fill="#ff435f"/><g fill="#e7e7e7"><path d="m67.476562 193.347656h-24.992187v30.3125c0 2.308594-2.613281 3.515625-5.320313 3.515625-2.613281 0-5.320312-1.207031-5.320312-3.515625v-66.449218c0-2.410157 2.707031-3.414063 5.320312-3.414063 2.707032 0 5.320313 1.003906 5.320313 3.414063v27.703124h24.992187v-27.703124c0-2.410157 2.710938-3.414063 5.320313-3.414063 2.710937 0 5.320313 1.003906 5.320313 3.414063v66.449218c0 2.308594-2.609376 3.515625-5.320313 3.515625-2.609375 0-5.320313-1.207031-5.320313-3.515625zm0 0"/><path d="m131.316406 153.800781c2.410156 0 3.511719 2.40625 3.511719 4.714844 0 2.609375-1.203125 5.019531-3.511719 5.019531h-15.457031v60.125c0 2.308594-2.710937 3.515625-5.320313 3.515625-2.710937 0-5.320312-1.207031-5.320312-3.515625v-60.125h-15.558594c-2.207031 0-3.511718-2.308594-3.511718-4.917968 0-2.308594 1.101562-4.820313 3.511718-4.820313h41.65625zm0 0"/><path d="m174.476562 200.375c-1.101562 1.804688-2.507812 2.40625-3.914062 2.40625-1.304688 0-2.710938-.601562-3.613281-2.40625l-13.449219-25.496094v48.785156c0 2.308594-2.609375 3.511719-5.320312 3.511719-2.609376 0-5.320313-1.203125-5.320313-3.511719v-64.546874c0-3.914063 2.609375-5.316407 5.320313-5.316407 3.8125 0 5.921874 1.304688 8.429687 6.019531l14.054687 26.601563 14.253907-26.601563c2.507812-4.714843 4.515625-6.019531 8.332031-6.019531 2.808594 0 5.316406 1.402344 5.316406 5.316407v64.546874c0 2.308594-2.605468 3.511719-5.316406 3.511719-2.613281 0-5.320312-1.203125-5.320312-3.511719v-48.183593zm0 0"/><path d="m216.539062 227.175781c-2.308593 0-4.71875-1.203125-4.71875-3.511719v-66.453124c0-2.40625 2.710938-3.410157 5.320313-3.410157 2.710937 0 5.320313 1 5.320313 3.410157v60.527343h26.097656c2.109375 0 3.214844 2.308594 3.214844 4.71875 0 2.308594-1.105469 4.71875-3.214844 4.71875zm0 0"/></g><path d="m189.984375 403.351562c-1.921875 0-3.84375-.730468-5.308594-2.199218l-48.425781-48.425782c-2.933594-2.933593-2.933594-7.6875 0-10.617187l48.425781-48.425781c2.933594-2.933594 7.6875-2.933594 10.617188 0 2.933593 2.929687 2.933593 7.683594 0 10.617187l-43.117188 43.117188 43.117188 43.117187c2.933593 2.933594 2.933593 7.6875 0 10.617188-1.464844 1.46875-3.386719 2.199218-5.308594 2.199218zm0 0" fill="#838383"/><path d="m286.042969 403.351562c-1.921875 0-3.84375-.730468-5.308594-2.199218-2.933594-2.929688-2.933594-7.683594 0-10.617188l43.117187-43.117187-43.117187-43.117188c-2.933594-2.933593-2.933594-7.6875 0-10.617187 2.929687-2.933594 7.683594-2.933594 10.617187 0l48.425782 48.425781c1.410156 1.40625 2.199218 3.316406 2.199218 5.308594 0 1.992187-.789062 3.902343-2.199218 5.308593l-48.425782 48.429688c-1.464843 1.464844-3.386718 2.195312-5.308593 2.195312zm0 0" fill="#838383"/><path d="m218.984375 403.355469c-.914063 0-1.839844-.167969-2.742187-.523438-3.859376-1.515625-5.757813-5.875-4.242188-9.734375l38.050781-96.851562c1.515625-3.863282 5.875-5.761719 9.734375-4.246094 3.859375 1.519531 5.757813 5.875 4.242188 9.734375l-38.050782 96.855469c-1.160156 2.957031-3.992187 4.765625-6.992187 4.765625zm0 0" fill="#838383"/></svg>