<?xml version="1.0"?>
<svg xmlns="http://www.w3.org/2000/svg" xmlns:xlink="http://www.w3.org/1999/xlink" version="1.1" id="Capa_1" x="0px" y="0px" viewBox="0 0 512 512" style="enable-background:new 0 0 512 512;" xml:space="preserve" width="512" height="512" class=""><g><g>
	<g>
		<path d="M512,349.984c0-19.53-12.578-36.024-30-42.237V152.353l30-12.369L256,37.27L0,139.984l256,102.715l196-78.3v143.348    c-17.422,6.213-30,22.707-30,42.237c0,17.88,10.56,33.228,25.701,40.481l-24.924,74.773l28.447,9.492L467,427.401l15.776,47.329    l28.447-9.492l-24.924-74.773C501.44,383.213,512,367.865,512,349.984z" data-original="#000000" class="active-path" data-old_color="#000000" style="fill:#FFD15C"/>
	</g>
</g><g>
	<g>
		<path d="M256,275.028L121,220.82v39.164c0,42.759,58.037,75,135,75s135-32.241,135-75V220.82L256,275.028z" data-original="#000000" class="active-path" data-old_color="#000000" style="fill:#FFD15C"/>
	</g>
</g></g> </svg>
